# xmcd CD database file
#
# Track frame offsets:
#	150
#	12665
#	25540
#	35580
#	50507
#	62785
#	74555
#	87137
#	98188
#	108903
#	120069
#	130417
#	139505
#	152181
#	163591
#
# Disc length: 2318 seconds
#
# Revision: 0
# Processed by: cddbd v1.5.1PL2 Copyright (c) Steve Scherf et al.
# Submitted via: CDex 1.51
#
DISCID=c3090c0f
DTITLE=Johnny Cash - The Legendary Johnny Cash Disk 2
DYEAR=2006
DGENRE=Country
TTITLE0=I Walk The Line
TTITLE1=Folsom Prison Blues
TTITLE2=Balad Of  A Teenage Queen
TTITLE3=There Ain't No Good Chain Gang (With Waylon Jennings)
TTITLE4=Home Of The Blues
TTITLE5=Big River
TTITLE6=Next In Line
TTITLE7=Train Of Love
TTITLE8=Bused (with The Carter Family)
TTITLE9=Cry, Cry, Cry
TTITLE10=Hey Porter!
TTITLE11=Katy Too
TTITLE12=Give MY Love To Rose
TTITLE13=Oh Lonesome Me
TTITLE14=Straight A's In Love
EXTD=YEAR: 2006
EXTT0=
EXTT1=
EXTT2=
EXTT3=
EXTT4=
EXTT5=
EXTT6=
EXTT7=
EXTT8=
EXTT9=
EXTT10=
EXTT11=
EXTT12=
EXTT13=
EXTT14=
PLAYORDER=
